<?xml version="1.0" encoding="UTF-8" standalone="no"?>
<!-- Created with Inkscape (http://www.inkscape.org/) -->

<svg
   width="32.059921mm"
   height="15.584106mm"
   viewBox="0 0 32.059921 15.584107"
   version="1.1"
   id="svg5"
   xml:space="preserve"
   xmlns="http://www.w3.org/2000/svg"
   xmlns:svg="http://www.w3.org/2000/svg"><defs
     id="defs2" /><g
     id="layer1"
     transform="translate(-216.87573,-140.12607)"><path
       id="path6880"
       style="opacity:1;fill:#377569;fill-opacity:1;stroke:none;stroke-width:1.9;stroke-linecap:butt;stroke-linejoin:miter;stroke-miterlimit:3;stroke-dasharray:none;stroke-dashoffset:0;stroke-opacity:1;paint-order:stroke fill markers;stop-color:#000000;stop-opacity:1"
       d="m 232.27535,142.22935 c -1.16817,-0.55915 -2.32145,-0.97953 -3.46278,-1.29142 l -3.09798,1.29524 1.44657,-1.67435 c -3.49329,-0.66081 -6.88939,-0.42809 -10.28544,-0.19397 1.52997,1.84941 3.06051,3.69857 4.64788,5.42553 l 2.19176,-1.78385 -1.70198,2.31189 c 1.53527,1.63203 3.12915,3.1385 4.83172,4.41354 l 3.1112,-2.66006 -2.6089,3.02685 c 1.03059,0.73426 2.10119,1.3828 3.22402,1.9202 1.08099,0.51738 2.2104,0.93162 3.37725,1.26574 l 3.30824,-2.33083 -2.04825,2.65782 c 2.02255,0.47284 4.14489,0.73365 6.31965,0.88165 l 0.99877,-2.00999 0.1088,2.07591 c 2.07334,0.10687 4.18647,0.12925 6.29976,0.15094 -1.96507,-1.89667 -3.92997,-3.79023 -5.8818,-5.56527 l -0.35268,1.83425 -0.71651,-2.79474 c -0.71384,-0.63314 -1.42599,-1.24938 -2.13498,-1.83783 l -1.05483,2.77026 0.63822,-3.11416 c -1.64633,-1.34491 -3.27692,-2.54459 -4.88395,-3.52715 l -2.12874,2.94018 1.47931,-3.32661 c -0.54437,-0.31363 -1.08604,-0.60212 -1.62435,-0.85978 z" /></g></svg>
