<?xml version="1.0" encoding="UTF-8" standalone="no"?>
<!-- Created with Inkscape (http://www.inkscape.org/) -->

<svg
   width="21.676849mm"
   height="25.836929mm"
   viewBox="0 0 21.676849 25.836929"
   version="1.1"
   id="svg5"
   xml:space="preserve"
   xmlns="http://www.w3.org/2000/svg"
   xmlns:svg="http://www.w3.org/2000/svg"><defs
     id="defs2" /><g
     id="layer1"
     transform="translate(-161.88784,-155.67523)"><path
       id="path5775"
       style="opacity:1;fill:#29584f;fill-opacity:1;stroke:none;stroke-width:1.9;stroke-linecap:butt;stroke-linejoin:miter;stroke-miterlimit:3;stroke-dasharray:none;stroke-dashoffset:0;stroke-opacity:1;paint-order:stroke fill markers;stop-color:#000000;stop-opacity:1"
       d="m 162.17652,155.67525 c -0.0595,1.21218 -0.11648,2.41948 -0.16628,3.61694 l 4.80947,1.54651 -4.85027,-0.56292 c -0.0528,1.44286 -0.0851,2.85667 -0.0813,4.21796 l 5.75365,-0.26698 -5.75162,0.86225 c 0.0308,2.74588 0.22839,5.25094 0.74847,7.29108 l 7.39336,-3.4607 -6.76886,5.33245 c 0.76325,1.79755 1.86727,3.11326 3.23804,4.09209 l 6.4852,-5.54135 -4.63538,6.60152 c 0.6273,0.28654 1.29164,0.53 1.98891,0.73815 1.30234,0.38879 2.71994,0.65512 4.20946,0.84524 l 2.48414,-5.27552 -1.1085,5.42827 c 2.27195,0.21824 4.67659,0.29576 7.08252,0.37192 0.22904,-2.38338 0.45591,-4.76529 0.53142,-7.04372 l -4.00093,0.0326 4.02105,-0.8557 c 0.0236,-1.47275 -0.025,-2.89573 -0.19165,-4.23847 l -7.46795,1.42235 7.37128,-2.113 c -0.0831,-0.52422 -0.18582,-1.03521 -0.31111,-1.53058 -0.3183,-1.25851 -0.7821,-2.4173 -1.37971,-3.47025 l -7.7639,3.34996 6.42802,-5.2693 c -0.97181,-1.1528 -2.1473,-2.12728 -3.5054,-2.90872 l -5.93524,4.25296 4.20366,-5.10437 c -1.92339,-0.80103 -4.12061,-1.2968 -6.44648,-1.64908 l -0.59116,4.4398 -0.33396,-4.57199 c -1.77814,-0.23936 -3.61847,-0.40954 -5.45889,-0.57941 z" /></g></svg>
