<?xml version="1.0" encoding="UTF-8" standalone="no"?>
<!-- Created with Inkscape (http://www.inkscape.org/) -->

<svg
   width="5.8562927mm"
   height="4.9148922mm"
   viewBox="0 0 5.8562928 4.9148922"
   version="1.1"
   id="svg5"
   xml:space="preserve"
   inkscape:version="1.3-dev (09700cf, 2022-04-14)"
   sodipodi:docname="piano.svg"
   xmlns:inkscape="http://www.inkscape.org/namespaces/inkscape"
   xmlns:sodipodi="http://sodipodi.sourceforge.net/DTD/sodipodi-0.dtd"
   xmlns="http://www.w3.org/2000/svg"
   xmlns:svg="http://www.w3.org/2000/svg"><sodipodi:namedview
     id="namedview7"
     pagecolor="#ffffff"
     bordercolor="#000000"
     borderopacity="0.25"
     inkscape:pageshadow="2"
     inkscape:pageopacity="0.0"
     inkscape:pagecheckerboard="0"
     inkscape:deskcolor="#d1d1d1"
     inkscape:document-units="mm"
     showgrid="false"
     inkscape:zoom="0.70710678"
     inkscape:cx="1260.0643"
     inkscape:cy="364.15999"
     inkscape:window-width="1920"
     inkscape:window-height="1009"
     inkscape:window-x="0"
     inkscape:window-y="0"
     inkscape:window-maximized="1"
     inkscape:current-layer="layer1" /><defs
     id="defs2" /><g
     inkscape:label="Layer 1"
     inkscape:groupmode="layer"
     id="layer1"
     transform="translate(-443.88025,13.211866)"><path
       id="path1417"
       style="color:#000000;fill:#29584f;fill-opacity:1;stroke-width:1;stroke-miterlimit:3;paint-order:stroke fill markers"
       d="m 446.80942,-13.211848 c -0.34852,-1.41e-4 -0.69731,0.06144 -1.02592,0.184214 -0.0249,0.0093 -0.0493,0.01913 -0.0739,0.02908 l -0.0574,0.02138 -0.002,0.0031 c -0.59927,0.258511 -1.10395,0.717001 -1.4159,1.291722 -0.2781,0.512369 -0.3973,1.103939 -0.34003,1.6840967 0.0575,0.5801625 0.29001,1.1371307 0.66292,1.5852372 l 0.09,0.1072444 0.14025,0.00581 c 0.71906,0.027331 1.4328,-0.1893265 2.02072,-0.5930086 0.58808,0.4040794 1.30214,0.6210355 2.02156,0.5936928 l 0.13975,-0.00581 0.0898,-0.1074154 c 0.37292,-0.4481063 0.60604,-1.0049038 0.66331,-1.5850624 0.0573,-0.5801577 -0.0626,-1.1710437 -0.34072,-1.6834127 -0.31171,-0.574276 -0.81587,-1.033195 -1.41453,-1.291893 l -0.003,-0.005 -0.1312,-0.04909 c -0.32803,-0.123046 -0.67642,-0.184763 -1.02493,-0.184903 z m -6.6e-4,0.63098 c 0.0231,-9e-6 0.0461,3.64e-4 0.0691,0.001 0.20142,0.0095 0.39881,0.05821 0.59148,0.115968 0.12771,0.393624 0.17987,0.814184 0.12025,1.223134 -0.0672,0.461212 -0.25799,0.907509 -0.54495,1.2747891 -0.0723,0.092547 -0.15155,0.1792144 -0.23639,0.2599865 -0.0845,-0.080585 -0.16344,-0.1670396 -0.23553,-0.2593024 -0.28695,-0.3672802 -0.47769,-0.8130642 -0.54494,-1.2742762 -0.0596,-0.408938 -0.008,-0.830032 0.12025,-1.223647 0.21486,-0.06447 0.43508,-0.117587 0.66074,-0.117678 z m -1.40376,0.477383 c -0.0451,0.31577 -0.0453,0.638028 7.8e-4,0.954596 0.0833,0.571102 0.31637,1.116076 0.6717,1.5708651 0.0684,0.087573 0.14138,0.1710592 0.21807,0.2507503 -0.40622,0.2303888 -0.87392,0.3588102 -1.34029,0.3685993 -0.23203,-0.3255547 -0.39526,-0.7040168 -0.43445,-1.1010087 -0.0447,-0.452348 0.0501,-0.923189 0.267,-1.322681 0.15121,-0.278597 0.36461,-0.525548 0.61712,-0.721121 z m 2.80785,0.0014 c 0.25228,0.195686 0.46552,0.442734 0.61662,0.721121 0.21684,0.399492 0.31233,0.869649 0.26768,1.321997 -0.0391,0.3969527 -0.20245,0.7759861 -0.43445,1.1015216 -0.46665,-0.00978 -0.93493,-0.1384634 -1.3415,-0.3692835 0.0772,-0.080056 0.15052,-0.1639277 0.21928,-0.2519475 0.35533,-0.4547886 0.58843,-0.9997636 0.6717,-1.5708656 0.0461,-0.315935 0.0456,-0.637379 6.6e-4,-0.952543 z"
       inkscape:export-filename="../../programkhan/piano/static/favicon.png"
       inkscape:export-xdpi="86.739998"
       inkscape:export-ydpi="86.739998" /></g></svg>
